<mxfile host="65bd71144e">
    <diagram id="AXSQg7dk-93lB_95VPqM" name="Page-1">
        <mxGraphModel dx="4934" dy="2782" grid="1" gridSize="10" guides="1" tooltips="1" connect="1" arrows="1" fold="1" page="1" pageScale="1" pageWidth="850" pageHeight="1100" math="0" shadow="0">
            <root>
                <mxCell id="0"/>
                <mxCell id="1" parent="0"/>
                <mxCell id="22" style="edgeStyle=none;html=1;" edge="1" parent="1" source="2" target="13">
                    <mxGeometry relative="1" as="geometry"/>
                </mxCell>
                <mxCell id="2" value="&lt;div style=&quot;color: rgb(187, 187, 187); background-color: rgb(40, 44, 52); font-family: &amp;quot;Droid Sans Mono&amp;quot;, &amp;quot;monospace&amp;quot;, monospace; font-size: 14px; line-height: 19px;&quot;&gt;&lt;div&gt;&lt;span style=&quot;color: #56b6c2;&quot;&gt;function&lt;/span&gt; &lt;span style=&quot;color: #98c379;&quot;&gt;Menus&lt;/span&gt;&lt;span style=&quot;color: #abb2bf;&quot;&gt;({&lt;/span&gt; &lt;span style=&quot;color: #abb2bf;&quot;&gt;children&lt;/span&gt; &lt;span style=&quot;color: #abb2bf;&quot;&gt;})&lt;/span&gt; &lt;span style=&quot;color: #abb2bf;&quot;&gt;{&lt;/span&gt;&lt;/div&gt;&lt;div&gt;&lt;br&gt;&lt;/div&gt;&lt;div&gt;  &lt;span style=&quot;color: #e06c75;&quot;&gt;return&lt;/span&gt; &lt;span style=&quot;color: #abb2bf;&quot;&gt;(&lt;/span&gt;&lt;/div&gt;&lt;div&gt;    &amp;lt;&lt;span style=&quot;color: #61afef;&quot;&gt;MenusContext.Provider&lt;/span&gt;&lt;/div&gt;&lt;div&gt;      &lt;span style=&quot;color: #98c379;&quot;&gt;value&lt;/span&gt;&lt;span style=&quot;color: #e06c75;&quot;&gt;=&lt;/span&gt;&lt;span style=&quot;color: #c678dd;&quot;&gt;{&lt;/span&gt;&lt;span style=&quot;color: #abb2bf;&quot;&gt;{&lt;/span&gt; &lt;span style=&quot;color: #abb2bf;&quot;&gt;openId&lt;/span&gt;, &lt;span style=&quot;color: #abb2bf;&quot;&gt;close&lt;/span&gt;, &lt;span style=&quot;color: #abb2bf;&quot;&gt;open&lt;/span&gt;, &lt;span style=&quot;color: #abb2bf;&quot;&gt;position&lt;/span&gt;, &lt;span style=&quot;color: #abb2bf;&quot;&gt;setPosition&lt;/span&gt; &lt;span style=&quot;color: #abb2bf;&quot;&gt;}&lt;/span&gt;&lt;span style=&quot;color: #c678dd;&quot;&gt;}&lt;/span&gt;&lt;/div&gt;&lt;div&gt;    &amp;gt;&lt;/div&gt;&lt;div&gt;      &lt;span style=&quot;color: #c678dd;&quot;&gt;{&lt;/span&gt;&lt;span style=&quot;color: #abb2bf;&quot;&gt;children&lt;/span&gt;&lt;span style=&quot;color: #c678dd;&quot;&gt;}&lt;/span&gt;&lt;/div&gt;&lt;div&gt;    &amp;lt;/&lt;span style=&quot;color: #61afef;&quot;&gt;MenusContext.Provider&lt;/span&gt;&amp;gt;&lt;/div&gt;&lt;div&gt;  &lt;span style=&quot;color: #abb2bf;&quot;&gt;)&lt;/span&gt;;&lt;/div&gt;&lt;div&gt;&lt;span style=&quot;color: #abb2bf;&quot;&gt;}&lt;/span&gt;&lt;/div&gt;&lt;/div&gt;" style="rounded=1;whiteSpace=wrap;html=1;" vertex="1" parent="1">
                    <mxGeometry x="205" y="-370" width="470" height="220" as="geometry"/>
                </mxCell>
                <mxCell id="6" style="edgeStyle=none;html=1;" edge="1" parent="1" source="3" target="2">
                    <mxGeometry relative="1" as="geometry"/>
                </mxCell>
                <mxCell id="3" value="&lt;div style=&quot;color: rgb(187, 187, 187); background-color: rgb(40, 44, 52); font-family: &amp;quot;Droid Sans Mono&amp;quot;, &amp;quot;monospace&amp;quot;, monospace; font-size: 14px; line-height: 19px;&quot;&gt;&lt;span style=&quot;color: #56b6c2;&quot;&gt;function&lt;/span&gt; &lt;span style=&quot;color: #98c379;&quot;&gt;Toggle&lt;/span&gt;&lt;span style=&quot;color: #abb2bf;&quot;&gt;({&lt;/span&gt; &lt;span style=&quot;color: #abb2bf;&quot;&gt;id&lt;/span&gt; &lt;span style=&quot;color: #abb2bf;&quot;&gt;})&lt;/span&gt; &lt;span style=&quot;color: #abb2bf;&quot;&gt;{&lt;/span&gt;&lt;/div&gt;" style="rounded=0;whiteSpace=wrap;html=1;" vertex="1" parent="1">
                    <mxGeometry x="-110" y="40" width="300" height="130" as="geometry"/>
                </mxCell>
                <mxCell id="8" style="edgeStyle=none;html=1;entryX=0.5;entryY=1;entryDx=0;entryDy=0;" edge="1" parent="1" source="4" target="2">
                    <mxGeometry relative="1" as="geometry"/>
                </mxCell>
                <mxCell id="4" value="&lt;div style=&quot;color: rgb(187, 187, 187); background-color: rgb(40, 44, 52); font-family: &amp;quot;Droid Sans Mono&amp;quot;, &amp;quot;monospace&amp;quot;, monospace; font-size: 14px; line-height: 19px;&quot;&gt;&lt;div style=&quot;line-height: 19px;&quot;&gt;&lt;span style=&quot;color: #56b6c2;&quot;&gt;function&lt;/span&gt; &lt;span style=&quot;color: #98c379;&quot;&gt;List&lt;/span&gt;&lt;span style=&quot;color: #abb2bf;&quot;&gt;({&lt;/span&gt; &lt;span style=&quot;color: #abb2bf;&quot;&gt;id&lt;/span&gt;, &lt;span style=&quot;color: #abb2bf;&quot;&gt;children&lt;/span&gt; &lt;span style=&quot;color: #abb2bf;&quot;&gt;})&lt;/span&gt; &lt;span style=&quot;color: #abb2bf;&quot;&gt;{&lt;/span&gt;&lt;/div&gt;&lt;/div&gt;" style="rounded=0;whiteSpace=wrap;html=1;" vertex="1" parent="1">
                    <mxGeometry x="290" y="10" width="300" height="130" as="geometry"/>
                </mxCell>
                <mxCell id="7" style="edgeStyle=none;html=1;entryX=0.75;entryY=1;entryDx=0;entryDy=0;" edge="1" parent="1" source="5" target="2">
                    <mxGeometry relative="1" as="geometry"/>
                </mxCell>
                <mxCell id="5" value="&lt;div style=&quot;color: rgb(187, 187, 187); background-color: rgb(40, 44, 52); font-family: &amp;quot;Droid Sans Mono&amp;quot;, &amp;quot;monospace&amp;quot;, monospace; font-size: 14px; line-height: 19px;&quot;&gt;&lt;div style=&quot;line-height: 19px;&quot;&gt;&lt;div style=&quot;line-height: 19px;&quot;&gt;&lt;span style=&quot;color: #56b6c2;&quot;&gt;function&lt;/span&gt; &lt;span style=&quot;color: #98c379;&quot;&gt;Button&lt;/span&gt;&lt;span style=&quot;color: #abb2bf;&quot;&gt;({&lt;/span&gt; &lt;span style=&quot;color: #abb2bf;&quot;&gt;children&lt;/span&gt;, &lt;span style=&quot;color: #abb2bf;&quot;&gt;icon&lt;/span&gt;, &lt;span style=&quot;color: #abb2bf;&quot;&gt;onClick&lt;/span&gt; &lt;span style=&quot;color: #abb2bf;&quot;&gt;})&lt;/span&gt; &lt;span style=&quot;color: #abb2bf;&quot;&gt;{&lt;/span&gt;&lt;/div&gt;&lt;/div&gt;&lt;/div&gt;" style="rounded=0;whiteSpace=wrap;html=1;" vertex="1" parent="1">
                    <mxGeometry x="690" y="-10" width="300" height="130" as="geometry"/>
                </mxCell>
                <mxCell id="9" value="&lt;div style=&quot;color: rgb(187, 187, 187); background-color: rgb(40, 44, 52); font-family: &amp;quot;Droid Sans Mono&amp;quot;, &amp;quot;monospace&amp;quot;, monospace; font-size: 14px; line-height: 19px;&quot;&gt;&lt;span style=&quot;color: #56b6c2;&quot;&gt;function&lt;/span&gt; &lt;span style=&quot;color: #98c379;&quot;&gt;Toggle&lt;/span&gt;&lt;span style=&quot;color: #abb2bf;&quot;&gt;({&lt;/span&gt; &lt;span style=&quot;color: #abb2bf;&quot;&gt;id&lt;/span&gt; &lt;span style=&quot;color: #abb2bf;&quot;&gt;})&lt;/span&gt; &lt;span style=&quot;color: #abb2bf;&quot;&gt;{&lt;/span&gt;&lt;/div&gt;" style="rounded=0;whiteSpace=wrap;html=1;" vertex="1" parent="1">
                    <mxGeometry x="-190" y="-360" width="300" height="130" as="geometry"/>
                </mxCell>
                <mxCell id="11" style="edgeStyle=none;html=1;" edge="1" parent="1" source="10" target="2">
                    <mxGeometry relative="1" as="geometry"/>
                </mxCell>
                <mxCell id="10" value="&lt;div style=&quot;color: rgb(187, 187, 187); background-color: rgb(40, 44, 52); font-family: &amp;quot;Droid Sans Mono&amp;quot;, &amp;quot;monospace&amp;quot;, monospace; font-weight: normal; font-size: 14px; line-height: 19px;&quot;&gt;&lt;div&gt;&lt;span style=&quot;color: #bbbbbb;&quot;&gt;&amp;lt;&lt;/span&gt;&lt;span style=&quot;color: #61afef;&quot;&gt;Menus.Menu&lt;/span&gt;&lt;span style=&quot;color: #bbbbbb;&quot;&gt;&amp;gt;&lt;/span&gt;&lt;/div&gt;&lt;div&gt;&lt;span style=&quot;color: #bbbbbb;&quot;&gt;            &amp;lt;&lt;/span&gt;&lt;span style=&quot;color: #61afef;&quot;&gt;Menus.Toggle&lt;/span&gt;&lt;span style=&quot;color: #bbbbbb;&quot;&gt; &lt;/span&gt;&lt;span style=&quot;color: #98c379;&quot;&gt;id&lt;/span&gt;&lt;span style=&quot;color: #e06c75;&quot;&gt;=&lt;/span&gt;&lt;span style=&quot;color: #c678dd;&quot;&gt;{&lt;/span&gt;&lt;span style=&quot;color: #abb2bf;&quot;&gt;cabinId&lt;/span&gt;&lt;span style=&quot;color: #c678dd;&quot;&gt;}&lt;/span&gt;&lt;span style=&quot;color: #bbbbbb;&quot;&gt; &lt;/span&gt;&lt;span style=&quot;color: #bbbbbb;&quot;&gt;/&amp;gt;&lt;/span&gt;&lt;/div&gt;&lt;br&gt;&lt;div&gt;&lt;span style=&quot;color: #bbbbbb;&quot;&gt;            &amp;lt;&lt;/span&gt;&lt;span style=&quot;color: #61afef;&quot;&gt;Menus.List&lt;/span&gt;&lt;span style=&quot;color: #bbbbbb;&quot;&gt; &lt;/span&gt;&lt;span style=&quot;color: #98c379;&quot;&gt;id&lt;/span&gt;&lt;span style=&quot;color: #e06c75;&quot;&gt;=&lt;/span&gt;&lt;span style=&quot;color: #c678dd;&quot;&gt;{&lt;/span&gt;&lt;span style=&quot;color: #abb2bf;&quot;&gt;cabinId&lt;/span&gt;&lt;span style=&quot;color: #c678dd;&quot;&gt;}&lt;/span&gt;&lt;span style=&quot;color: #bbbbbb;&quot;&gt;&amp;gt;&lt;/span&gt;&lt;/div&gt;&lt;div&gt;&lt;span style=&quot;color: #bbbbbb;&quot;&gt;              &amp;lt;&lt;/span&gt;&lt;span style=&quot;color: #61afef;&quot;&gt;Menus.Button&lt;/span&gt;&lt;span style=&quot;color: #bbbbbb;&quot;&gt; &lt;/span&gt;&lt;span style=&quot;color: #98c379;&quot;&gt;onClick&lt;/span&gt;&lt;span style=&quot;color: #e06c75;&quot;&gt;=&lt;/span&gt;&lt;span style=&quot;color: #c678dd;&quot;&gt;{&lt;/span&gt;&lt;span style=&quot;color: #abb2bf;&quot;&gt;handleDuplicate&lt;/span&gt;&lt;span style=&quot;color: #c678dd;&quot;&gt;}&lt;/span&gt;&lt;span style=&quot;color: #bbbbbb;&quot;&gt; &lt;/span&gt;&lt;span style=&quot;color: #98c379;&quot;&gt;icon&lt;/span&gt;&lt;span style=&quot;color: #e06c75;&quot;&gt;=&lt;/span&gt;&lt;span style=&quot;color: #c678dd;&quot;&gt;{&lt;/span&gt;&lt;span style=&quot;color: #bbbbbb;&quot;&gt;&amp;lt;&lt;/span&gt;&lt;span style=&quot;color: #61afef;&quot;&gt;HiSquare2Stack&lt;/span&gt;&lt;span style=&quot;color: #bbbbbb;&quot;&gt; &lt;/span&gt;&lt;span style=&quot;color: #bbbbbb;&quot;&gt;/&amp;gt;&lt;/span&gt;&lt;span style=&quot;color: #c678dd;&quot;&gt;}&lt;/span&gt;&lt;span style=&quot;color: #bbbbbb;&quot;&gt;&amp;gt;&lt;/span&gt;&lt;/div&gt;&lt;div&gt;&lt;span style=&quot;color: #bbbbbb;&quot;&gt;                Duplicate&lt;/span&gt;&lt;/div&gt;&lt;div&gt;&lt;span style=&quot;color: #bbbbbb;&quot;&gt;              &lt;/span&gt;&lt;span style=&quot;color: #bbbbbb;&quot;&gt;&amp;lt;/&lt;/span&gt;&lt;span style=&quot;color: #61afef;&quot;&gt;Menus.Button&lt;/span&gt;&lt;span style=&quot;color: #bbbbbb;&quot;&gt;&amp;gt;&lt;/span&gt;&lt;/div&gt;&lt;div&gt;&lt;span style=&quot;color: #bbbbbb;&quot;&gt;              &amp;lt;&lt;/span&gt;&lt;span style=&quot;color: #61afef;&quot;&gt;Modal.Open&lt;/span&gt;&lt;span style=&quot;color: #bbbbbb;&quot;&gt; &lt;/span&gt;&lt;span style=&quot;color: #98c379;&quot;&gt;opens&lt;/span&gt;&lt;span style=&quot;color: #e06c75;&quot;&gt;=&lt;/span&gt;&lt;span style=&quot;color: #c678dd;&quot;&gt;{&lt;/span&gt;&lt;span style=&quot;color: #e5c07b;&quot;&gt;`edit`&lt;/span&gt;&lt;span style=&quot;color: #c678dd;&quot;&gt;}&lt;/span&gt;&lt;span style=&quot;color: #bbbbbb;&quot;&gt;&amp;gt;&lt;/span&gt;&lt;/div&gt;&lt;div&gt;&lt;span style=&quot;color: #bbbbbb;&quot;&gt;                &amp;lt;&lt;/span&gt;&lt;span style=&quot;color: #61afef;&quot;&gt;Menus.Button&lt;/span&gt;&lt;span style=&quot;color: #bbbbbb;&quot;&gt; &lt;/span&gt;&lt;span style=&quot;color: #98c379;&quot;&gt;icon&lt;/span&gt;&lt;span style=&quot;color: #e06c75;&quot;&gt;=&lt;/span&gt;&lt;span style=&quot;color: #c678dd;&quot;&gt;{&lt;/span&gt;&lt;span style=&quot;color: #bbbbbb;&quot;&gt;&amp;lt;&lt;/span&gt;&lt;span style=&quot;color: #61afef;&quot;&gt;HiPencil&lt;/span&gt;&lt;span style=&quot;color: #bbbbbb;&quot;&gt; &lt;/span&gt;&lt;span style=&quot;color: #bbbbbb;&quot;&gt;/&amp;gt;&lt;/span&gt;&lt;span style=&quot;color: #c678dd;&quot;&gt;}&lt;/span&gt;&lt;span style=&quot;color: #bbbbbb;&quot;&gt;&amp;gt;&lt;/span&gt;&lt;span style=&quot;color: #bbbbbb;&quot;&gt;Edit&lt;/span&gt;&lt;span style=&quot;color: #bbbbbb;&quot;&gt;&amp;lt;/&lt;/span&gt;&lt;span style=&quot;color: #61afef;&quot;&gt;Menus.Button&lt;/span&gt;&lt;span style=&quot;color: #bbbbbb;&quot;&gt;&amp;gt;&lt;/span&gt;&lt;/div&gt;&lt;div&gt;&lt;span style=&quot;color: #bbbbbb;&quot;&gt;              &lt;/span&gt;&lt;span style=&quot;color: #bbbbbb;&quot;&gt;&amp;lt;/&lt;/span&gt;&lt;span style=&quot;color: #61afef;&quot;&gt;Modal.Open&lt;/span&gt;&lt;span style=&quot;color: #bbbbbb;&quot;&gt;&amp;gt;&lt;/span&gt;&lt;/div&gt;&lt;div&gt;&lt;span style=&quot;color: #bbbbbb;&quot;&gt;              &amp;lt;&lt;/span&gt;&lt;span style=&quot;color: #61afef;&quot;&gt;Modal.Open&lt;/span&gt;&lt;span style=&quot;color: #bbbbbb;&quot;&gt; &lt;/span&gt;&lt;span style=&quot;color: #98c379;&quot;&gt;opens&lt;/span&gt;&lt;span style=&quot;color: #e06c75;&quot;&gt;=&lt;/span&gt;&lt;span style=&quot;color: #c678dd;&quot;&gt;{&lt;/span&gt;&lt;span style=&quot;color: #e5c07b;&quot;&gt;'delete'&lt;/span&gt;&lt;span style=&quot;color: #c678dd;&quot;&gt;}&lt;/span&gt;&lt;span style=&quot;color: #bbbbbb;&quot;&gt;&amp;gt;&lt;/span&gt;&lt;/div&gt;&lt;div&gt;&lt;span style=&quot;color: #bbbbbb;&quot;&gt;                &amp;lt;&lt;/span&gt;&lt;span style=&quot;color: #61afef;&quot;&gt;Menus.Button&lt;/span&gt;&lt;span style=&quot;color: #bbbbbb;&quot;&gt; &lt;/span&gt;&lt;span style=&quot;color: #98c379;&quot;&gt;icon&lt;/span&gt;&lt;span style=&quot;color: #e06c75;&quot;&gt;=&lt;/span&gt;&lt;span style=&quot;color: #c678dd;&quot;&gt;{&lt;/span&gt;&lt;span style=&quot;color: #bbbbbb;&quot;&gt;&amp;lt;&lt;/span&gt;&lt;span style=&quot;color: #61afef;&quot;&gt;HiTrash&lt;/span&gt;&lt;span style=&quot;color: #bbbbbb;&quot;&gt; &lt;/span&gt;&lt;span style=&quot;color: #bbbbbb;&quot;&gt;/&amp;gt;&lt;/span&gt;&lt;span style=&quot;color: #c678dd;&quot;&gt;}&lt;/span&gt;&lt;span style=&quot;color: #bbbbbb;&quot;&gt;&amp;gt;&lt;/span&gt;&lt;span style=&quot;color: #bbbbbb;&quot;&gt;Delete&lt;/span&gt;&lt;span style=&quot;color: #bbbbbb;&quot;&gt;&amp;lt;/&lt;/span&gt;&lt;span style=&quot;color: #61afef;&quot;&gt;Menus.Button&lt;/span&gt;&lt;span style=&quot;color: #bbbbbb;&quot;&gt;&amp;gt;&lt;/span&gt;&lt;/div&gt;&lt;div&gt;&lt;span style=&quot;color: #bbbbbb;&quot;&gt;              &lt;/span&gt;&lt;span style=&quot;color: #bbbbbb;&quot;&gt;&amp;lt;/&lt;/span&gt;&lt;span style=&quot;color: #61afef;&quot;&gt;Modal.Open&lt;/span&gt;&lt;span style=&quot;color: #bbbbbb;&quot;&gt;&amp;gt;&lt;/span&gt;&lt;/div&gt;&lt;div&gt;&lt;span style=&quot;color: #bbbbbb;&quot;&gt;            &lt;/span&gt;&lt;span style=&quot;color: #bbbbbb;&quot;&gt;&amp;lt;/&lt;/span&gt;&lt;span style=&quot;color: #61afef;&quot;&gt;Menus.List&lt;/span&gt;&lt;span style=&quot;color: #bbbbbb;&quot;&gt;&amp;gt;&lt;/span&gt;&lt;/div&gt;&lt;div&gt;&lt;span style=&quot;color: #bbbbbb;&quot;&gt;          &lt;/span&gt;&lt;span style=&quot;color: #bbbbbb;&quot;&gt;&amp;lt;/&lt;/span&gt;&lt;span style=&quot;color: #61afef;&quot;&gt;Menus.Menu&lt;/span&gt;&lt;span style=&quot;color: #bbbbbb;&quot;&gt;&amp;gt;&lt;/span&gt;&lt;/div&gt;&lt;br&gt;&lt;/div&gt;" style="rounded=0;whiteSpace=wrap;html=1;" vertex="1" parent="1">
                    <mxGeometry x="15" y="-1070" width="820" height="460" as="geometry"/>
                </mxCell>
                <mxCell id="23" style="edgeStyle=none;html=1;" edge="1" parent="1" source="13" target="10">
                    <mxGeometry relative="1" as="geometry"/>
                </mxCell>
                <mxCell id="13" value="&lt;div style=&quot;color: rgb(187, 187, 187); background-color: rgb(40, 44, 52); font-family: &amp;quot;Droid Sans Mono&amp;quot;, &amp;quot;monospace&amp;quot;, monospace; font-size: 14px; line-height: 19px;&quot;&gt;&lt;div&gt;&lt;span style=&quot;color: #abb2bf;&quot;&gt;Menus&lt;/span&gt;&lt;span style=&quot;color: #e06c75;&quot;&gt;.&lt;/span&gt;&lt;span style=&quot;color: #abb2bf;&quot;&gt;Menu&lt;/span&gt; &lt;span style=&quot;color: #e06c75;&quot;&gt;=&lt;/span&gt; &lt;span style=&quot;color: #abb2bf;&quot;&gt;Menu&lt;/span&gt;;&lt;/div&gt;&lt;div&gt;&lt;span style=&quot;color: #abb2bf;&quot;&gt;Menus&lt;/span&gt;&lt;span style=&quot;color: #e06c75;&quot;&gt;.&lt;/span&gt;&lt;span style=&quot;color: #abb2bf;&quot;&gt;Toggle&lt;/span&gt; &lt;span style=&quot;color: #e06c75;&quot;&gt;=&lt;/span&gt; &lt;span style=&quot;color: #abb2bf;&quot;&gt;Toggle&lt;/span&gt;;&lt;/div&gt;&lt;div&gt;&lt;span style=&quot;color: #abb2bf;&quot;&gt;Menus&lt;/span&gt;&lt;span style=&quot;color: #e06c75;&quot;&gt;.&lt;/span&gt;&lt;span style=&quot;color: #abb2bf;&quot;&gt;List&lt;/span&gt; &lt;span style=&quot;color: #e06c75;&quot;&gt;=&lt;/span&gt; &lt;span style=&quot;color: #abb2bf;&quot;&gt;List&lt;/span&gt;;&lt;/div&gt;&lt;div&gt;&lt;span style=&quot;color: #abb2bf;&quot;&gt;Menus&lt;/span&gt;&lt;span style=&quot;color: #e06c75;&quot;&gt;.&lt;/span&gt;&lt;span style=&quot;color: #abb2bf;&quot;&gt;Button&lt;/span&gt; &lt;span style=&quot;color: #e06c75;&quot;&gt;=&lt;/span&gt; &lt;span style=&quot;color: #abb2bf;&quot;&gt;Button&lt;/span&gt;;&lt;/div&gt;&lt;/div&gt;" style="shape=process;whiteSpace=wrap;html=1;backgroundOutline=1;" vertex="1" parent="1">
                    <mxGeometry x="900" y="-770" width="540" height="260" as="geometry"/>
                </mxCell>
                <mxCell id="18" value="" style="endArrow=none;html=1;" edge="1" parent="1">
                    <mxGeometry width="50" height="50" relative="1" as="geometry">
                        <mxPoint x="350" y="130" as="sourcePoint"/>
                        <mxPoint x="400" y="80" as="targetPoint"/>
                    </mxGeometry>
                </mxCell>
            </root>
        </mxGraphModel>
    </diagram>
</mxfile>